<?xml version="1.0" standalone="no"?><!DOCTYPE svg PUBLIC "-//W3C//DTD SVG 1.1//EN" "http://www.w3.org/Graphics/SVG/1.1/DTD/svg11.dtd"><svg t="1531465814761" class="icon" style="" viewBox="0 0 1024 1024" version="1.1" xmlns="http://www.w3.org/2000/svg" p-id="2079" xmlns:xlink="http://www.w3.org/1999/xlink" width="200" height="200"><defs><style type="text/css"></style></defs><path d="M1011.2 12.8c-17.066667-17.066667-42.666667-17.066667-59.733333 0L512 460.8 72.533333 12.8C55.466667-4.266667 29.866667-4.266667 12.8 12.8s-17.066667 42.666667 0 59.733333l439.466667 448-422.4 426.666667c-17.066667 17.066667-17.066667 42.666667 0 59.733333 8.533333 12.8 21.333333 17.066667 29.866666 17.066667s21.333333-4.266667 29.866667-12.8l422.4-426.666667 422.4 426.666667c8.533333 8.533333 21.333333 12.8 29.866667 12.8s21.333333-4.266667 29.866666-12.8c17.066667-17.066667 17.066667-42.666667 0-59.733333l-422.4-426.666667L1011.2 72.533333c17.066667-17.066667 17.066667-42.666667 0-59.733333z" fill="#CCCCCC" p-id="2080"></path></svg>