<?xml version="1.0" standalone="no"?><!DOCTYPE svg PUBLIC "-//W3C//DTD SVG 1.1//EN" "http://www.w3.org/Graphics/SVG/1.1/DTD/svg11.dtd"><svg t="1535079224660" class="icon" style="" viewBox="0 0 1260 1024" version="1.1" xmlns="http://www.w3.org/2000/svg" p-id="2607" xmlns:xlink="http://www.w3.org/1999/xlink" width="246.09375" height="200"><defs><style type="text/css"></style></defs><path d="M853.267692 309.956923c14.375385 0 28.750769 1.378462 43.126154 2.756923C857.993846 133.12 665.796923 0 446.030769 0 201.058462 0 0 166.596923 0 378.289231c0 122.092308 66.953846 222.523077 178.609231 300.307692l-44.504616 133.710769 155.963077-78.76923a768 768 0 0 0 155.963077 22.646153c13.784615 0 28.16 0 41.747693-2.166153a325.513846 325.513846 0 0 1-13.587693-93.538462c0-192.787692 166.990769-350.523077 379.076923-350.523077zM613.021538 189.046154A52.578462 52.578462 0 0 1 669.538462 244.381538a53.169231 53.169231 0 0 1-56.123077 55.926154c-33.476923 0-66.953846-22.449231-66.953847-55.926154s33.673846-55.335385 66.56-55.335384z m-311.926153 111.261538c-33.476923 0-67.150769-22.449231-67.15077-55.926154s33.673846-55.335385 67.15077-55.335384a51.987692 51.987692 0 0 1 55.335384 55.335384 51.987692 51.987692 0 0 1-55.335384 55.926154zM1260.307692 656.738462c0-177.230769-178.609231-322.953846-379.076923-322.953847C669.538462 334.769231 502.153846 478.523077 502.153846 656.738462s167.384615 322.953846 379.076923 322.953846a544.886154 544.886154 0 0 0 134.104616-22.646154l122.486153 66.953846-33.476923-111.261538C1193.353846 846.769231 1260.307692 757.169231 1260.307692 656.738462z m-502.153846-55.926154a47.852308 47.852308 0 0 1-44.504615-44.504616A48.246154 48.246154 0 0 1 758.153846 512a51.396923 51.396923 0 0 1 56.123077 44.307692c0 22.646154-22.055385 44.504615-56.123077 44.504616z m245.563077 0a47.852308 47.852308 0 0 1-44.504615-44.504616A48.246154 48.246154 0 0 1 1004.307692 512a51.396923 51.396923 0 0 1 56.123077 44.307692A51.396923 51.396923 0 0 1 1004.307692 600.812308z" fill="#18CE38" p-id="2608"></path></svg>