<?xml version="1.0" standalone="no"?><!DOCTYPE svg PUBLIC "-//W3C//DTD SVG 1.1//EN" "http://www.w3.org/Graphics/SVG/1.1/DTD/svg11.dtd"><svg t="1535079214633" class="icon" style="" viewBox="0 0 1126 1024" version="1.1" xmlns="http://www.w3.org/2000/svg" p-id="2498" xmlns:xlink="http://www.w3.org/1999/xlink" width="219.921875" height="200"><defs><style type="text/css"></style></defs><path d="M125.183374 898.816626h876.283619v-166.911166h125.183374v292.09454H0v-292.09454h125.183374zM116.00326 568.541157Q207.387123 189.235534 646.780766 189.235534V0l417.277914 277.90709a20.863896 20.863896 0 0 1 5.633252 29.000815 17.525672 17.525672 0 0 1-4.590058 5.007335L646.780766 629.046455V415.400163a874.614507 874.614507 0 0 0-283.331703 17.525672q-114.542787 29.000815-237.222494 141.665852a6.259169 6.259169 0 0 1-8.971475 0 6.05053 6.05053 0 0 1-1.251834-6.05053z" fill="#47A4FF" p-id="2499"></path></svg>